<svg width="100" height="100" viewBox="0 0 100 100" fill="none" xmlns="http://www.w3.org/2000/svg">
<path d="M80.3953 51.5069L88.9746 54.679" stroke="white" stroke-width="5.6104"/>
<path d="M81.15 45.4515L68.5294 81.0352C68.3717 81.4797 68.3461 81.9603 68.4556 82.419L69.6871 87.5796C70.0785 89.2196 71.9741 89.9796 73.39 89.0643L78.8554 85.5312C79.3173 85.2326 79.6649 84.7869 79.8421 84.2662L91.8846 48.8676C92.2834 47.6953 92.2783 46.4232 91.8699 45.2542C90.6637 41.8009 86.5023 40.4421 83.4905 42.5181L83.296 42.6522C82.3038 43.3362 81.5528 44.3158 81.15 45.4515Z" stroke="white" stroke-width="4.88648"/>
<mask id="path-3-inside-1_399_1150" fill="white">
<path fill-rule="evenodd" clip-rule="evenodd" d="M25.7981 7.99973H65.4444C75.5502 7.99973 83.7427 16.1922 83.7427 26.298V39.099C83.7427 41.1892 83.3845 43.264 82.6838 45.2333L68.8032 84.2426H25.798C15.6922 84.2426 7.49976 76.0502 7.49976 65.9443V26.298C7.49976 16.1921 15.6922 7.99973 25.7981 7.99973ZM31.5864 35.9431C32.1661 36.5228 32.9523 36.8485 33.772 36.8485C34.5918 36.8485 35.378 36.5228 35.9576 35.9431C36.5373 35.3635 36.863 34.5773 36.863 33.7575C36.863 32.9378 36.5373 32.1516 35.9576 31.5719C35.378 30.9922 34.5918 30.6666 33.772 30.6666C32.9523 30.6666 32.1661 30.9922 31.5864 31.5719C31.0067 32.1516 30.6811 32.9378 30.6811 33.7575C30.6811 34.5773 31.0067 35.3635 31.5864 35.9431ZM30.6811 48.1818C30.6811 48.1818 30.5781 60.5456 45.6206 60.5456C60.6631 60.5456 60.6631 48.1818 60.6631 48.1818H30.6811ZM54.4902 35.5777C54.9675 34.6914 56.2584 34.7519 56.6507 35.679C57.1429 36.8424 58.485 37.3865 59.6484 36.8943C60.8118 36.4021 61.3559 35.06 60.8637 33.8966C58.9753 29.4332 52.7601 29.1418 50.4624 33.4089L50.3039 33.7034C49.705 34.8156 50.1211 36.2028 51.2333 36.8017C52.3456 37.4006 53.7327 36.9844 54.3316 35.8722L54.4902 35.5777Z"/>
</mask>
<path fill-rule="evenodd" clip-rule="evenodd" d="M25.7981 7.99973H65.4444C75.5502 7.99973 83.7427 16.1922 83.7427 26.298V39.099C83.7427 41.1892 83.3845 43.264 82.6838 45.2333L68.8032 84.2426H25.798C15.6922 84.2426 7.49976 76.0502 7.49976 65.9443V26.298C7.49976 16.1921 15.6922 7.99973 25.7981 7.99973ZM31.5864 35.9431C32.1661 36.5228 32.9523 36.8485 33.772 36.8485C34.5918 36.8485 35.378 36.5228 35.9576 35.9431C36.5373 35.3635 36.863 34.5773 36.863 33.7575C36.863 32.9378 36.5373 32.1516 35.9576 31.5719C35.378 30.9922 34.5918 30.6666 33.772 30.6666C32.9523 30.6666 32.1661 30.9922 31.5864 31.5719C31.0067 32.1516 30.6811 32.9378 30.6811 33.7575C30.6811 34.5773 31.0067 35.3635 31.5864 35.9431ZM30.6811 48.1818C30.6811 48.1818 30.5781 60.5456 45.6206 60.5456C60.6631 60.5456 60.6631 48.1818 60.6631 48.1818H30.6811ZM54.4902 35.5777C54.9675 34.6914 56.2584 34.7519 56.6507 35.679C57.1429 36.8424 58.485 37.3865 59.6484 36.8943C60.8118 36.4021 61.3559 35.06 60.8637 33.8966C58.9753 29.4332 52.7601 29.1418 50.4624 33.4089L50.3039 33.7034C49.705 34.8156 50.1211 36.2028 51.2333 36.8017C52.3456 37.4006 53.7327 36.9844 54.3316 35.8722L54.4902 35.5777Z" fill="white"/>
<path d="M30.6811 45.8946C29.4179 45.8946 28.3938 46.9186 28.3938 48.1818C28.3938 49.4451 29.4179 50.4691 30.6811 50.4691V45.8946ZM60.6631 50.4691C61.9264 50.4691 62.9504 49.4451 62.9504 48.1818C62.9504 46.9186 61.9264 45.8946 60.6631 45.8946V50.4691ZM30.6811 50.4691H60.6631V45.8946H30.6811V50.4691ZM82.6838 45.2333L86.9937 46.7668V46.7668L82.6838 45.2333ZM68.8032 84.2426V88.8172C70.7384 88.8172 72.4643 87.5994 73.113 85.7762L68.8032 84.2426ZM31.5864 35.9431L34.8211 32.7084L34.8211 32.7084L31.5864 35.9431ZM35.9576 35.9431L32.7229 32.7084L32.7229 32.7084L35.9576 35.9431ZM35.9576 31.5719L32.7229 34.8066L32.7229 34.8066L35.9576 31.5719ZM30.6811 48.1818V43.6073C28.1695 43.6073 26.1276 45.6322 26.1067 48.1437L30.6811 48.1818ZM60.6631 48.1818L65.2377 48.1818C65.2377 46.9686 64.7557 45.805 63.8978 44.9471C63.0399 44.0892 61.8764 43.6073 60.6631 43.6073V48.1818ZM56.6507 35.679L52.4376 37.4614L52.4376 37.4615L56.6507 35.679ZM54.4902 35.5777L50.4624 33.4089L50.4624 33.4089L54.4902 35.5777ZM59.6484 36.8943L61.4308 41.1074L61.4308 41.1073L59.6484 36.8943ZM60.8637 33.8966L65.0767 32.1142L65.0767 32.1141L60.8637 33.8966ZM50.4624 33.4089L54.4902 35.5777L54.4902 35.5777L50.4624 33.4089ZM50.3039 33.7034L46.2761 31.5346L46.2761 31.5346L50.3039 33.7034ZM51.2333 36.8017L53.4021 32.7739L53.4021 32.7739L51.2333 36.8017ZM54.3316 35.8722L58.3594 38.041L58.3594 38.041L54.3316 35.8722ZM65.4444 3.42515H25.7981V12.5743H65.4444V3.42515ZM88.3172 26.298C88.3172 13.6657 78.0767 3.42515 65.4444 3.42515V12.5743C73.0238 12.5743 79.1681 18.7186 79.1681 26.298H88.3172ZM88.3172 39.099V26.298H79.1681V39.099H88.3172ZM86.9937 46.7668C87.8696 44.3052 88.3172 41.7118 88.3172 39.099H79.1681C79.1681 40.6667 78.8995 42.2228 78.3739 43.6997L86.9937 46.7668ZM73.113 85.7762L86.9937 46.7668L78.3739 43.6997L64.4933 82.7091L73.113 85.7762ZM25.798 88.8172H68.8032V79.6681H25.798V88.8172ZM2.92518 65.9443C2.92518 78.5767 13.1657 88.8172 25.798 88.8172V79.6681C18.2186 79.6681 12.0743 73.5237 12.0743 65.9443H2.92518ZM2.92518 26.298V65.9443H12.0743V26.298H2.92518ZM25.7981 3.42515C13.1657 3.42515 2.92518 13.6657 2.92518 26.298H12.0743C12.0743 18.7186 18.2186 12.5743 25.7981 12.5743V3.42515ZM33.772 32.2739C34.1655 32.2739 34.5429 32.4302 34.8211 32.7084L28.3517 39.1779C29.7893 40.6154 31.739 41.423 33.772 41.423V32.2739ZM32.7229 32.7084C33.0012 32.4302 33.3786 32.2739 33.772 32.2739V41.423C35.805 41.423 37.7548 40.6154 39.1924 39.1778L32.7229 32.7084ZM32.2884 33.7575C32.2884 33.3641 32.4447 32.9867 32.7229 32.7084L39.1924 39.1779C40.6299 37.7403 41.4375 35.7905 41.4375 33.7575H32.2884ZM32.7229 34.8066C32.4447 34.5284 32.2884 34.151 32.2884 33.7575H41.4375C41.4375 31.7245 40.6299 29.7748 39.1924 28.3372L32.7229 34.8066ZM33.772 35.2412C33.3786 35.2412 33.0012 35.0849 32.7229 34.8066L39.1924 28.3372C37.7548 26.8996 35.805 26.092 33.772 26.092V35.2412ZM34.8211 34.8066C34.5429 35.0849 34.1655 35.2412 33.772 35.2412V26.092C31.739 26.092 29.7893 26.8996 28.3517 28.3372L34.8211 34.8066ZM35.2557 33.7575C35.2557 34.151 35.0994 34.5284 34.8211 34.8066L28.3517 28.3372C26.9141 29.7748 26.1065 31.7245 26.1065 33.7575H35.2557ZM34.8211 32.7084C35.0994 32.9867 35.2557 33.3641 35.2557 33.7575H26.1065C26.1065 35.7905 26.9141 37.7403 28.3517 39.1779L34.8211 32.7084ZM45.6206 55.971C39.6213 55.971 37.4176 53.6518 36.4326 52.0101C35.8495 51.0384 35.5441 50.0302 35.3905 49.2405C35.3154 48.8539 35.2815 48.5449 35.2666 48.3548C35.2592 48.2606 35.2566 48.1983 35.2558 48.1734C35.2554 48.161 35.2555 48.1582 35.2556 48.1657C35.2556 48.1694 35.2557 48.1757 35.2557 48.1848C35.2557 48.1893 35.2557 48.1944 35.2557 48.2003C35.2556 48.2032 35.2556 48.2063 35.2556 48.2096C35.2556 48.2113 35.2556 48.2138 35.2556 48.2147C35.2556 48.2173 35.2555 48.22 30.6811 48.1818C26.1067 48.1437 26.1067 48.1465 26.1067 48.1493C26.1067 48.1503 26.1066 48.1532 26.1066 48.1552C26.1066 48.1592 26.1066 48.1635 26.1066 48.1679C26.1065 48.1767 26.1065 48.1864 26.1065 48.1969C26.1066 48.2178 26.1067 48.2418 26.107 48.269C26.1076 48.3232 26.1089 48.3898 26.1114 48.468C26.1165 48.6242 26.1264 48.8276 26.1456 49.0714C26.1837 49.5575 26.2594 50.2143 26.4096 50.9868C26.7068 52.5154 27.3157 54.5981 28.5873 56.7173C31.3113 61.2574 36.5774 65.1201 45.6206 65.1201V55.971ZM60.6631 48.1818C56.0886 48.1818 56.0886 48.1792 56.0886 48.1765C56.0886 48.1757 56.0886 48.1731 56.0886 48.1715C56.0886 48.1682 56.0886 48.1651 56.0886 48.1622C56.0886 48.1563 56.0887 48.1511 56.0887 48.1466C56.0888 48.1376 56.0889 48.1313 56.089 48.1276C56.0891 48.1201 56.0891 48.1229 56.0886 48.1353C56.0876 48.1603 56.0845 48.2227 56.0764 48.317C56.0598 48.5074 56.0233 48.8171 55.9448 49.2046C55.7844 49.9955 55.4694 51.0083 54.8746 51.9862C53.8634 53.6485 51.6217 55.971 45.6206 55.971V65.1201C54.662 65.1201 59.9416 61.2608 62.691 56.7412C63.9765 54.6281 64.6017 52.55 64.9114 51.0228C65.0679 50.2512 65.1489 49.5949 65.1911 49.1092C65.2123 48.8655 65.2239 48.6622 65.2303 48.5061C65.2334 48.4279 65.2353 48.3613 65.2364 48.3071C65.2369 48.2799 65.2372 48.2559 65.2374 48.235C65.2375 48.2245 65.2376 48.2149 65.2376 48.206C65.2377 48.2016 65.2377 48.1973 65.2377 48.1933C65.2377 48.1913 65.2377 48.1884 65.2377 48.1874C65.2377 48.1846 65.2377 48.1818 60.6631 48.1818ZM30.6811 52.7564H60.6631V43.6073H30.6811V52.7564ZM60.8637 33.8966C58.9753 29.4331 52.7601 29.1418 50.4624 33.4089L58.518 37.7465C57.1748 40.241 53.5415 40.0707 52.4376 37.4614L60.8637 33.8966ZM57.866 32.6813C59.0294 32.1891 60.3715 32.7332 60.8637 33.8966L52.4376 37.4615C53.9142 40.9517 57.9406 42.584 61.4308 41.1074L57.866 32.6813ZM56.6507 35.679C56.1585 34.5156 56.7026 33.1735 57.866 32.6813L61.4308 41.1073C64.921 39.6307 66.5533 35.6043 65.0767 32.1142L56.6507 35.679ZM54.4902 35.5777C54.9675 34.6914 56.2584 34.7519 56.6507 35.679L65.0767 32.1141C61.6922 24.1144 50.5528 23.5921 46.4346 31.2401L54.4902 35.5777ZM54.3316 35.8722L54.4902 35.5777L46.4346 31.2401L46.2761 31.5346L54.3316 35.8722ZM53.4021 32.7739C54.5144 33.3728 54.9305 34.76 54.3316 35.8722L46.2761 31.5346C44.4794 34.8713 45.7278 39.0328 49.0645 40.8295L53.4021 32.7739ZM50.3039 33.7034C50.9028 32.5912 52.2899 32.175 53.4021 32.7739L49.0645 40.8295C52.4012 42.6262 56.5627 41.3777 58.3594 38.041L50.3039 33.7034ZM50.4624 33.4089L50.3038 33.7034L58.3594 38.041L58.518 37.7465L50.4624 33.4089Z" fill="white" mask="url(#path-3-inside-1_399_1150)"/>
</svg>

