<svg width="65" height="32" viewBox="0 0 65 32" fill="none" xmlns="http://www.w3.org/2000/svg">
<path d="M0.666687 16C0.666687 7.16344 7.83013 0 16.6667 0H48.6667C57.5032 0 64.6667 7.16344 64.6667 16C64.6667 24.8366 57.5032 32 48.6667 32H16.6667C7.83013 32 0.666687 24.8366 0.666687 16Z" fill="#D0BCFF"/>
<path d="M31.6667 8H24.6667C24.1363 8 23.6275 8.21071 23.2525 8.58579C22.8774 8.96086 22.6667 9.46957 22.6667 10V24C22.6667 24.5304 22.8774 25.0391 23.2525 25.4142C23.6275 25.7893 24.1363 26 24.6667 26H38.6667C39.1971 26 39.7058 25.7893 40.0809 25.4142C40.456 25.0391 40.6667 24.5304 40.6667 24V17" stroke="#49454F" stroke-width="2" stroke-linecap="round" stroke-linejoin="round"/>
<path d="M39.1667 6.50001C39.5645 6.10219 40.1041 5.87869 40.6667 5.87869C41.2293 5.87869 41.7689 6.10219 42.1667 6.50001C42.5645 6.89784 42.788 7.4374 42.788 8.00001C42.788 8.56262 42.5645 9.10219 42.1667 9.50001L32.6667 19L28.6667 20L29.6667 16L39.1667 6.50001Z" fill="#313033" stroke="#49454F" stroke-width="2" stroke-linecap="round" stroke-linejoin="round"/>
</svg>
