<svg width="25" height="24" viewBox="0 0 25 24" fill="none" xmlns="http://www.w3.org/2000/svg">
<path d="M11.6667 4H4.66669C4.13625 4 3.62755 4.21071 3.25247 4.58579C2.8774 4.96086 2.66669 5.46957 2.66669 6V20C2.66669 20.5304 2.8774 21.0391 3.25247 21.4142C3.62755 21.7893 4.13625 22 4.66669 22H18.6667C19.1971 22 19.7058 21.7893 20.0809 21.4142C20.456 21.0391 20.6667 20.5304 20.6667 20V13" stroke="#49454F" stroke-width="2" stroke-linecap="round" stroke-linejoin="round"/>
<path d="M19.1667 2.50001C19.5645 2.10219 20.1041 1.87869 20.6667 1.87869C21.2293 1.87869 21.7689 2.10219 22.1667 2.50001C22.5645 2.89784 22.788 3.4374 22.788 4.00001C22.788 4.56262 22.5645 5.10219 22.1667 5.50001L12.6667 15L8.66669 16L9.66669 12L19.1667 2.50001Z" fill="#313033" stroke="#49454F" stroke-width="2" stroke-linecap="round" stroke-linejoin="round"/>
</svg>
