<svg width="25" height="24" viewBox="0 0 25 24" fill="none" xmlns="http://www.w3.org/2000/svg">
<mask id="path-1-inside-1_130_320" fill="white">
<path fill-rule="evenodd" clip-rule="evenodd" d="M12.3333 4C10.1233 4 8.33331 5.79 8.33331 8C8.33331 10.21 10.1233 12 12.3333 12C14.5433 12 16.3333 10.21 16.3333 8C16.3333 5.79 14.5433 4 12.3333 4ZM14.3333 8C14.3333 6.9 13.4333 6 12.3333 6C11.2333 6 10.3333 6.9 10.3333 8C10.3333 9.1 11.2333 10 12.3333 10C13.4333 10 14.3333 9.1 14.3333 8ZM18.3333 17C18.1333 16.29 15.0333 15 12.3333 15C9.63331 15 6.53331 16.29 6.33331 17.01V18H18.3333V17ZM4.33331 17C4.33331 14.34 9.66331 13 12.3333 13C15.0033 13 20.3333 14.34 20.3333 17V20H4.33331V17Z"/>
</mask>
<path d="M18.3333 17H20.3333V16.7237L20.2584 16.4577L18.3333 17ZM6.33331 17.01L4.40628 16.4747L4.33331 16.7374V17.01H6.33331ZM6.33331 18H4.33331V20H6.33331V18ZM18.3333 18V20H20.3333V18H18.3333ZM20.3333 20V22H22.3333V20H20.3333ZM4.33331 20H2.33331V22H4.33331V20ZM10.3333 8C10.3333 6.89457 11.2279 6 12.3333 6V2C9.01874 2 6.33331 4.68543 6.33331 8H10.3333ZM12.3333 10C11.2279 10 10.3333 9.10543 10.3333 8H6.33331C6.33331 11.3146 9.01874 14 12.3333 14V10ZM14.3333 8C14.3333 9.10543 13.4387 10 12.3333 10V14C15.6479 14 18.3333 11.3146 18.3333 8H14.3333ZM12.3333 6C13.4387 6 14.3333 6.89457 14.3333 8H18.3333C18.3333 4.68543 15.6479 2 12.3333 2V6ZM12.3333 8H16.3333C16.3333 5.79543 14.5379 4 12.3333 4V8ZM12.3333 8V4C10.1287 4 8.33331 5.79543 8.33331 8H12.3333ZM12.3333 8H8.33331C8.33331 10.2046 10.1287 12 12.3333 12V8ZM12.3333 8V12C14.5379 12 16.3333 10.2046 16.3333 8H12.3333ZM12.3333 17C13.4001 17 14.6171 17.2626 15.5908 17.6146C16.0749 17.7896 16.4343 17.9637 16.6475 18.0941C16.7566 18.1608 16.7802 18.1875 16.7548 18.1635C16.7403 18.1498 16.691 18.1018 16.6311 18.0173C16.5738 17.9364 16.4743 17.7767 16.4082 17.5423L20.2584 16.4577C20.0881 15.8531 19.7093 15.4521 19.5028 15.2569C19.2591 15.0264 18.9866 14.8359 18.7347 14.6818C18.226 14.3707 17.6043 14.0891 16.9508 13.8529C15.6495 13.3824 13.9666 13 12.3333 13V17ZM8.26035 17.5453C8.196 17.7769 8.09865 17.9355 8.04165 18.0168C7.98231 18.1015 7.93331 18.1497 7.9185 18.1639C7.89267 18.1885 7.91559 18.1621 8.02394 18.0954C8.23588 17.9649 8.59412 17.7905 9.07764 17.6152C10.05 17.2626 11.2666 17 12.3333 17V13C10.7 13 9.01661 13.3824 7.71399 13.8548C7.06 14.092 6.437 14.3751 5.92706 14.689C5.67448 14.8445 5.4013 15.0369 5.15711 15.27C4.94854 15.469 4.57388 15.8713 4.40628 16.4747L8.26035 17.5453ZM8.33331 18V17.01H4.33331V18H8.33331ZM18.3333 16H6.33331V20H18.3333V16ZM16.3333 17V18H20.3333V17H16.3333ZM12.3333 11C10.7483 11 8.49547 11.3819 6.58832 12.1459C5.63314 12.5286 4.6389 13.0563 3.85139 13.7831C3.05029 14.5225 2.33331 15.6004 2.33331 17H6.33331C6.33331 17.0696 6.28258 16.9825 6.5643 16.7225C6.8596 16.45 7.36474 16.1439 8.0758 15.8591C9.50115 15.2881 11.2483 15 12.3333 15V11ZM22.3333 17C22.3333 15.6004 21.6163 14.5225 20.8152 13.7831C20.0277 13.0563 19.0335 12.5286 18.0783 12.1459C16.1712 11.3819 13.9183 11 12.3333 11V15C13.4183 15 15.1655 15.2881 16.5908 15.8591C17.3019 16.1439 17.807 16.45 18.1023 16.7225C18.384 16.9825 18.3333 17.0696 18.3333 17H22.3333ZM22.3333 20V17H18.3333V20H22.3333ZM4.33331 22H20.3333V18H4.33331V22ZM2.33331 17V20H6.33331V17H2.33331Z" fill="#49454F" mask="url(#path-1-inside-1_130_320)"/>
</svg>
