<svg width="24" height="24" viewBox="0 0 24 24" fill="none" xmlns="http://www.w3.org/2000/svg">
    <path fill-rule="evenodd" clip-rule="evenodd"
        d="M4.12467 17.6237C3.50337 18.245 3.50337 19.2523 4.12467 19.8736C4.74596 20.4949 5.75329 20.4949 6.37459 19.8736L11.9997 14.2485L17.6251 19.8739C18.2464 20.4952 19.2537 20.4952 19.875 19.8739C20.4963 19.2526 20.4963 18.2453 19.875 17.624L14.2496 11.9986L19.8741 6.3741C20.4954 5.7528 20.4954 4.74547 19.8741 4.12418C19.2528 3.50288 18.2455 3.50288 17.6242 4.12418L11.9997 9.74867L6.3755 4.12448C5.7542 3.50318 4.74687 3.50318 4.12557 4.12448C3.50427 4.74578 3.50428 5.7531 4.12557 6.3744L9.74977 11.9986L4.12467 17.6237Z"
        fill="#262329" />
</svg>