<svg width="21" height="16" viewBox="0 0 21 16" fill="none" xmlns="http://www.w3.org/2000/svg">
<path d="M20.7999 13.4V2.6C20.7999 1.604 19.9959 0.800003 18.9999 0.800003H2.18794C1.19194 0.800003 0.387939 1.604 0.387939 2.6V13.4C0.387939 14.396 1.19194 15.2 2.18794 15.2H18.9999C19.9959 15.2 20.7999 14.396 20.7999 13.4ZM19.2279 2.468C19.6239 2.864 19.4079 3.272 19.1919 3.476L14.3199 7.94L18.9999 12.812C19.1439 12.98 19.2399 13.244 19.0719 13.424C18.9159 13.616 18.5559 13.604 18.3999 13.484L13.1559 9.008L10.5879 11.348L8.03194 9.008L2.78794 13.484C2.63194 13.604 2.27194 13.616 2.11594 13.424C1.94794 13.244 2.04394 12.98 2.18794 12.812L6.86794 7.94L1.99594 3.476C1.77994 3.272 1.56394 2.864 1.95994 2.468C2.35594 2.072 2.76394 2.264 3.09994 2.552L10.5879 8.6L18.0879 2.552C18.4239 2.264 18.8319 2.072 19.2279 2.468Z" fill="white"/>
</svg>
