<svg width="20" height="20" viewBox="0 0 20 20" fill="none" xmlns="http://www.w3.org/2000/svg">
<path d="M10.0013 3.63721C4.5469 3.63721 1.95705 8.3127 1.32874 9.64728C1.22375 9.86997 1.22375 10.1283 1.32874 10.351C1.95705 11.6863 4.5469 16.3626 10.0013 16.3626C15.4366 16.3626 18.0282 11.7202 18.6677 10.3665C18.7774 10.1335 18.7774 9.86633 18.6677 9.63329C18.0282 8.27963 15.4366 3.63721 10.0013 3.63721ZM10.0013 6.02322C12.1972 6.02322 13.978 7.80397 13.978 9.9999C13.978 12.1958 12.1972 13.9766 10.0013 13.9766C7.8054 13.9766 6.02464 12.1958 6.02464 9.9999C6.02464 7.80397 7.8054 6.02322 10.0013 6.02322ZM10.0013 7.61389C9.36851 7.61389 8.76162 7.86527 8.31416 8.31273C7.86669 8.7602 7.61531 9.36709 7.61531 9.9999C7.61531 10.6327 7.86669 11.2396 8.31416 11.6871C8.76162 12.1345 9.36851 12.3859 10.0013 12.3859C10.6341 12.3859 11.241 12.1345 11.6885 11.6871C12.1359 11.2396 12.3873 10.6327 12.3873 9.9999C12.3873 9.36709 12.1359 8.7602 11.6885 8.31273C11.241 7.86527 10.6341 7.61389 10.0013 7.61389Z" fill="currentColor"/>
</svg>
