<svg width="28" height="28" viewBox="0 0 28 28" fill="none" xmlns="http://www.w3.org/2000/svg">
<g clip-path="url(#clip0_299_925)">
<path d="M26.7117 11.3593L15.4947 11.3587C14.9994 11.3587 14.5979 11.7602 14.5979 12.2555V15.8388C14.5979 16.334 14.9994 16.7356 15.4947 16.7356H21.8114C21.1197 18.5306 19.8287 20.034 18.1816 20.9892L20.875 25.6518C25.1957 23.153 27.75 18.7686 27.75 13.8606C27.75 13.1618 27.6985 12.6622 27.5955 12.0997C27.5172 11.6723 27.1462 11.3593 26.7117 11.3593Z" fill="#167EE6"/>
<path d="M13.9999 22.1196C10.9086 22.1196 8.20997 20.4306 6.76058 17.9312L2.09814 20.6186C4.47083 24.7308 8.91562 27.5 13.9999 27.5C16.4941 27.5 18.8475 26.8285 20.8749 25.6582V25.6518L18.1815 20.9891C16.9494 21.7037 15.5237 22.1196 13.9999 22.1196Z" fill="#12B347"/>
<path d="M20.875 25.6581V25.6518L18.1816 20.9891C16.9495 21.7036 15.5239 22.1196 14 22.1196V27.5C16.4942 27.5 18.8477 26.8285 20.875 25.6581Z" fill="#0F993E"/>
<path d="M5.63044 13.75C5.63044 12.2263 6.04627 10.8007 6.76068 9.56875L2.09825 6.88138C0.921494 8.90236 0.25 11.2494 0.25 13.75C0.25 16.2506 0.921494 18.5976 2.09825 20.6186L6.76068 17.9312C6.04627 16.6993 5.63044 15.2737 5.63044 13.75Z" fill="#FFD500"/>
<path d="M13.9999 5.38044C16.0157 5.38044 17.8674 6.09673 19.3136 7.2882C19.6704 7.5821 20.189 7.56089 20.5158 7.23406L23.0548 4.69514C23.4256 4.32432 23.3991 3.71733 23.003 3.37369C20.5799 1.2715 17.427 0 13.9999 0C8.91562 0 4.47082 2.76918 2.09814 6.88139L6.76058 9.56876C8.20997 7.06943 10.9086 5.38044 13.9999 5.38044Z" fill="#FF4B26"/>
<path d="M19.3137 7.2882C19.6705 7.5821 20.1892 7.56089 20.5159 7.23406L23.0549 4.69514C23.4256 4.32432 23.3992 3.71733 23.0031 3.37369C20.58 1.27145 17.4271 0 14 0V5.38044C16.0158 5.38044 17.8675 6.09673 19.3137 7.2882Z" fill="#D93F21"/>
</g>
<defs>
<clipPath id="clip0_299_925">
<rect width="27.5" height="27.5" fill="white" transform="translate(0.25)"/>
</clipPath>
</defs>
</svg>
