<svg width="43" height="42" viewBox="0 0 43 42" fill="none" xmlns="http://www.w3.org/2000/svg">
<circle cx="21.5" cy="21" r="21" fill="#EED4FC"/>
<path d="M27.5 15.2C27.5 15.5183 27.3736 15.8235 27.1485 16.0486C26.9235 16.2736 26.6183 16.4 26.3 16.4C25.9817 16.4 25.6765 16.2736 25.4515 16.0486C25.2264 15.8235 25.1 15.5183 25.1 15.2C25.1 14.8818 25.2264 14.5765 25.4515 14.3515C25.6765 14.1265 25.9817 14 26.3 14C26.6183 14 26.9235 14.1265 27.1485 14.3515C27.3736 14.5765 27.5 14.8818 27.5 15.2ZM24.5 10.4C20.8088 10.4 17.9 13.3088 17.9 17C17.9 17.4764 17.948 17.9552 18.0464 18.41C18.116 18.734 18.0368 19.0148 17.876 19.1756L12.428 24.6236C12.2605 24.7909 12.1277 24.9896 12.0371 25.2082C11.9465 25.4269 11.8999 25.6613 11.9 25.898V27.8C11.9 28.2774 12.0896 28.7353 12.4272 29.0728C12.7648 29.4104 13.2226 29.6 13.7 29.6H16.1C16.5774 29.6 17.0352 29.4104 17.3728 29.0728C17.7104 28.7353 17.9 28.2774 17.9 27.8V27.2H19.1C19.4183 27.2 19.7235 27.0736 19.9485 26.8486C20.1736 26.6235 20.3 26.3183 20.3 26V24.8H21.5C21.8183 24.8 22.1235 24.6736 22.3485 24.4486C22.5736 24.2235 22.7 23.9183 22.7 23.6V23.384C23.2916 23.5448 23.9084 23.6 24.5 23.6C28.1912 23.6 31.1 20.6912 31.1 17C31.1 13.3088 28.1912 10.4 24.5 10.4ZM19.1 17C19.1 13.9712 21.4712 11.6 24.5 11.6C27.5288 11.6 29.9 13.9712 29.9 17C29.9 20.0288 27.5288 22.4 24.5 22.4C23.708 22.4 22.9724 22.286 22.3688 21.9836C22.2773 21.9378 22.1756 21.9161 22.0734 21.9206C21.9712 21.9252 21.8718 21.9558 21.7848 22.0095C21.6977 22.0633 21.6259 22.1384 21.576 22.2277C21.5262 22.3171 21.5 22.4177 21.5 22.52V23.6H20.3C19.9817 23.6 19.6765 23.7265 19.4515 23.9515C19.2264 24.1765 19.1 24.4818 19.1 24.8V26H17.9C17.5817 26 17.2765 26.1265 17.0515 26.3515C16.8264 26.5765 16.7 26.8818 16.7 27.2V27.8C16.7 27.9592 16.6368 28.1118 16.5243 28.2243C16.4117 28.3368 16.2591 28.4 16.1 28.4H13.7C13.5409 28.4 13.3883 28.3368 13.2757 28.2243C13.1632 28.1118 13.1 27.9592 13.1 27.8V25.8968C13.1 25.738 13.163 25.5857 13.2752 25.4732L18.7244 20.024C19.2428 19.5056 19.3508 18.7712 19.2188 18.1568C19.1387 17.7765 19.0989 17.3887 19.1 17Z" fill="black"/>
</svg>
