<svg width="20" height="20" viewBox="0 0 20 20" fill="none" xmlns="http://www.w3.org/2000/svg">
<path d="M10 2.5C5.86533 2.5 2.5 5.86533 2.5 10C2.5 10.4563 2.54082 10.9137 2.62207 11.3574L3.85254 11.1328C3.78441 10.7622 3.75 10.3806 3.75 10C3.75 6.54092 6.54092 3.75 10 3.75C13.4591 3.75 16.25 6.54092 16.25 10H17.5C17.5 5.86533 14.1347 2.5 10 2.5ZM4.22974 12.406L3.07617 12.887C3.34992 13.542 3.7151 14.1545 4.1626 14.7095L5.13672 13.9246C4.76297 13.4614 4.45724 12.951 4.22974 12.406ZM14.8364 13.96C14.5739 14.2787 14.2793 14.5727 13.96 14.8352L14.7534 15.8008C15.1353 15.487 15.4883 15.1353 15.802 14.7522L14.8364 13.96ZM6.07544 14.8645L5.29053 15.8374C5.8449 16.2849 6.45741 16.6501 7.11304 16.9238L7.59399 15.7703C7.04837 15.5428 6.53731 15.2383 6.07544 14.8645ZM12.9309 15.5225C12.5659 15.7168 12.1809 15.8743 11.7871 15.9912L12.1423 17.1899C12.6161 17.0487 13.0793 16.8591 13.5181 16.626L12.9309 15.5225ZM8.86841 16.1487L8.64258 17.3779C9.08695 17.4592 9.54437 17.5 10 17.5C10.2294 17.5 10.4562 17.4895 10.6799 17.4695L10.5688 16.2244C10.3813 16.2406 10.1919 16.25 10 16.25C9.61937 16.25 9.23841 16.2162 8.86841 16.1487Z" fill="#E5002B"/>
</svg>
