<svg width="43" height="42" viewBox="0 0 43 42" fill="none" xmlns="http://www.w3.org/2000/svg">
<circle cx="21.5" cy="21" r="21" fill="#D7EAE4"/>
<path d="M28.1667 29H13.5V14.3333H22.3133L23.6467 13H13.5C13.1464 13 12.8072 13.1405 12.5572 13.3905C12.3071 13.6406 12.1667 13.9797 12.1667 14.3333V29C12.1667 29.3536 12.3071 29.6928 12.5572 29.9428C12.8072 30.1929 13.1464 30.3333 13.5 30.3333H28.1667C28.5203 30.3333 28.8594 30.1929 29.1095 29.9428C29.3595 29.6928 29.5 29.3536 29.5 29V19L28.1667 20.3333V29Z" fill="black"/>
<path d="M31.8533 12.8934L29.6067 10.6467C29.507 10.5467 29.3885 10.4674 29.2581 10.4133C29.1277 10.3592 28.9879 10.3313 28.8467 10.3313C28.7055 10.3313 28.5656 10.3592 28.4352 10.4133C28.3048 10.4674 28.1864 10.5467 28.0867 10.6467L18.9467 19.84L18.2067 23.0467C18.1751 23.2022 18.1784 23.3626 18.2164 23.5167C18.2543 23.6707 18.3259 23.8143 18.4259 23.9374C18.526 24.0604 18.6521 24.1597 18.7952 24.2282C18.9383 24.2967 19.0947 24.3326 19.2533 24.3334C19.3353 24.3424 19.418 24.3424 19.5 24.3334L22.7333 23.62L31.8533 14.4134C31.9533 14.3137 32.0326 14.1952 32.0868 14.0648C32.1409 13.9344 32.1687 13.7946 32.1687 13.6534C32.1687 13.5122 32.1409 13.3724 32.0868 13.242C32.0326 13.1115 31.9533 12.9931 31.8533 12.8934V12.8934ZM22.04 22.3867L19.6 22.9267L20.1667 20.5067L27.0467 13.58L28.9267 15.46L22.04 22.3867ZM29.68 14.7067L27.8 12.8267L28.8333 11.7734L30.7267 13.6667L29.68 14.7067Z" fill="black"/>
</svg>
