<svg width="56" height="66" viewBox="0 0 56 66" fill="none" xmlns="http://www.w3.org/2000/svg">
<path d="M1.75 11.125V54.8541" stroke="#79747E" stroke-width="3" stroke-linecap="round"/>
<path d="M54.25 24.25V54.875" stroke="#79747E" stroke-width="3" stroke-linecap="round" stroke-linejoin="round"/>
<path d="M10.5 2.375H32.375" stroke="#79747E" stroke-width="3" stroke-linecap="round" stroke-linejoin="round"/>
<path d="M10.5 63.625H45.5" stroke="#79747E" stroke-width="3" stroke-linecap="round"/>
<path d="M54.25 54.875C54.2739 59.245 49.875 63.625 45.5 63.625" stroke="#79747E" stroke-width="3" stroke-linecap="round" stroke-linejoin="round"/>
<path d="M1.75 54.875C1.75 59.25 6.125 63.625 10.5 63.625" stroke="#79747E" stroke-width="3" stroke-linecap="round" stroke-linejoin="round"/>
<path d="M1.75 11.1187C1.75 6.75 6.125 2.47243 10.5 2.375" stroke="#79747E" stroke-width="3" stroke-linecap="round" stroke-linejoin="round"/>
<path d="M54.2261 24.2696L32.375 2.375" stroke="#79747E" stroke-width="3" stroke-linecap="round" stroke-linejoin="round"/>
<path d="M32.375 15.5C32.3885 19.8512 36.7676 24.25 41.125 24.25" stroke="#79747E" stroke-width="3" stroke-linecap="round" stroke-linejoin="round"/>
<path d="M32.375 15.5V2.375" stroke="#79747E" stroke-width="3" stroke-linecap="round" stroke-linejoin="round"/>
<path d="M41.125 24.25H54.25" stroke="#79747E" stroke-width="3" stroke-linecap="round" stroke-linejoin="round"/>
<path d="M10.5 54.875H23.625" stroke="#79747E" stroke-width="3" stroke-linecap="round" stroke-linejoin="round"/>
<path d="M10.5 46.125H32.375" stroke="#79747E" stroke-width="3" stroke-linecap="round" stroke-linejoin="round"/>
<path d="M10.5 37.375H23.625" stroke="#79747E" stroke-width="3" stroke-linecap="round" stroke-linejoin="round"/>
</svg>
