<svg width="30" height="31" viewBox="0 0 30 31" fill="none" xmlns="http://www.w3.org/2000/svg">
<path d="M5 2.68065C4.33696 2.68065 3.70107 2.94404 3.23223 3.41288C2.76339 3.88172 2.5 4.51761 2.5 5.18065V25.1806C2.5 25.8437 2.76339 26.4796 3.23223 26.9484C3.70107 27.4173 4.33696 27.6806 5 27.6806V18.9306C5 17.9361 5.39509 16.9823 6.09835 16.279C6.80161 15.5757 7.75544 15.1806 8.75 15.1806H21.25C22.2446 15.1806 23.1984 15.5757 23.9017 16.279C24.6049 16.9823 25 17.9361 25 18.9306V27.6806C25.663 27.6806 26.2989 27.4173 26.7678 26.9484C27.2366 26.4796 27.5 25.8437 27.5 25.1806V9.23315C27.4999 8.57016 27.2364 7.93438 26.7675 7.46565L22.715 3.41315C22.2463 2.94428 21.6105 2.68079 20.9475 2.68065H20V6.43065C20 7.42521 19.6049 8.37904 18.9017 9.0823C18.1984 9.78556 17.2446 10.1806 16.25 10.1806H11.25C10.2554 10.1806 9.30161 9.78556 8.59835 9.0823C7.89509 8.37904 7.5 7.42521 7.5 6.43065V2.68065H5ZM10 2.68065V6.43065C10 6.76217 10.1317 7.08011 10.3661 7.31453C10.6005 7.54895 10.9185 7.68065 11.25 7.68065H16.25C16.5815 7.68065 16.8995 7.54895 17.1339 7.31453C17.3683 7.08011 17.5 6.76217 17.5 6.43065V2.68065H10ZM22.5 27.6806V18.9306C22.5 18.5991 22.3683 18.2812 22.1339 18.0468C21.8995 17.8123 21.5815 17.6806 21.25 17.6806H8.75C8.41848 17.6806 8.10054 17.8123 7.86612 18.0468C7.6317 18.2812 7.5 18.5991 7.5 18.9306V27.6806H22.5ZM0 5.18065C0 3.85457 0.526784 2.5828 1.46447 1.64511C2.40215 0.707433 3.67392 0.180649 5 0.180649H20.9475C22.2735 0.180932 23.545 0.707902 24.4825 1.64565L28.535 5.69815C29.4727 6.63561 29.9997 7.90717 30 9.23315V25.1806C30 26.5067 29.4732 27.7785 28.5355 28.7162C27.5979 29.6539 26.3261 30.1806 25 30.1806H5C3.67392 30.1806 2.40215 29.6539 1.46447 28.7162C0.526784 27.7785 0 26.5067 0 25.1806V5.18065Z" fill="#6750A4"/>
</svg>
